<svg id="Layer_1" data-name="Layer 1" xmlns="http://www.w3.org/2000/svg" viewBox="0 0 505.12 505.12"><defs><style>.cls-1{fill:#7f7f79;}.cls-2{fill:#3e454c;}.cls-3{fill:#c89f2d;}.cls-3,.cls-4{stroke:#3e454c;}.cls-3,.cls-4,.cls-5{stroke-miterlimit:10;stroke-width:5px;}.cls-4,.cls-6,.cls-7{fill:#eaeade;}.cls-5{fill:none;stroke:#c89f2d;}.cls-6{font-size:14.48px;}.cls-6,.cls-7{font-family:Gotham HTF Black;}.cls-7{font-size:53.29px;}</style></defs><title>logo</title><path class="cls-1" d="M252.56,71.27l175.5,43.63V355.82l-175.5,75-175.5-75V114.9l175.5-43.63"/><path class="cls-2" d="M252.56,72.87l175.5,43.27V355l-175.5,74.4L77.06,355V116.13l175.5-43.27m0-51.5L27.06,77V388.15l225.5,95.6,225.5-95.6V77l-225.5-55.6h0Z"/><circle class="cls-3" cx="252.56" cy="139.41" r="94.33"/><polygon class="cls-4" points="228.39 166.27 302.19 255.17 376 344.06 228.39 344.06 80.77 344.06 154.58 255.17 228.39 166.27"/><polygon class="cls-2" points="202.66 206.72 228.51 174.87 272.6 228.57 249.41 214 234.13 240.1 219.21 201.76 202.66 206.72"/><polygon class="cls-4" points="424.35 344.06 303.03 344.06 181.35 344.06 242.19 271.12 302.85 197.84 424.35 344.06"/><polygon class="cls-2" points="328.84 237.9 303.18 206.27 271.55 244.72 289.35 234.29 298.03 239.41 309.74 232.18 328.84 237.9"/><path class="cls-4" d="M358.84,130.38a24.55,24.55,0,0,0-33.54-14.09,24.55,24.55,0,0,0-42.79,6.59,24.55,24.55,0,1,0,23.89,42,24.54,24.54,0,0,0,33,10.49A24.55,24.55,0,1,0,358.84,130.38Z"/><path class="cls-4" d="M407.9,208.37A16.26,16.26,0,0,0,385.68,199a16.26,16.26,0,0,0-28.35,4.37,16.26,16.26,0,1,0,15.83,27.81A16.26,16.26,0,0,0,395,238.16,16.26,16.26,0,1,0,407.9,208.37Z"/><polyline class="cls-5" points="81.99 382.77 252.56 455.08 423.13 382.77"/><text class="cls-6" transform="translate(223.86 409.54)">DESIGN</text><polygon class="cls-1" points="500.89 398.47 4.22 398.47 25.07 372.47 4.22 346.47 500.89 346.47 481.1 372.47 500.89 398.47"/><text class="cls-7" transform="translate(73.34 390.91)">A<tspan x="41.83" y="0">SP</tspan><tspan x="112.44" y="0">E</tspan><tspan x="147.72" y="0">CTNINE</tspan></text></svg>